<svg xmlns="http://www.w3.org/2000/svg" width="289.761" height="59.058" viewBox="0 0 289.761 59.058">
    <defs>
        <style>
            .cls-1{fill:#fff}
        </style>
    </defs>
    <g id="logo" transform="translate(-114 -231.943)">
        <g id="logo-2" data-name="logo" transform="translate(114 231.944)">
            <path id="typography" d="M12 30.262V4h3.048v26.262zm23.1-.031v-2.723a10.4 10.4 0 0 1-7.6 3.3 10.574 10.574 0 0 1-10.629-10.462A10.573 10.573 0 0 1 27.494 9.88c3.6 0 5.419 1.255 7.6 3.091v-2.509h3.048v19.769zm-15.181-9.885c0 3.766 3.757 7.469 7.575 7.469s7.6-3.7 7.6-7.469-3.787-7.467-7.6-7.467-7.575 3.703-7.575 7.467zM58.806 6.269h3.048v4.652h3.88v3h-3.88v10.006c0 2.02 1.325 3.336 3.571 3.642v3c-4.033-.337-6.619-3-6.619-6.641V6.269zm115.06 23.993v-9.916a7.79 7.79 0 0 0-.986-3.7c-.954-1.867-2.832-3.766-6.619-3.766-3.726 0-5.728 1.9-6.62 3.766a8.145 8.145 0 0 0-.954 3.7v9.917h-3.048v-19.8h3.048v2.173a10.221 10.221 0 0 1 2.371-1.653 11.222 11.222 0 0 1 5.2-1.1c4.71 0 10.652 2.02 10.652 10.466v9.917zm23.522 0v-2.724a10.377 10.377 0 0 1-7.6 3.275 10.51 10.51 0 0 1-10.622-10.344 10.537 10.537 0 0 1 10.622-10.376c3.6 0 5.419 1.255 7.6 3.062V4h3.049v26.262zm-15.179-9.793c0 3.7 3.757 7.375 7.575 7.375s7.6-3.672 7.6-7.375c0-3.734-3.786-7.375-7.6-7.375s-7.575 3.641-7.575 7.375zm32.391 9.793V10.615h3.048v19.647zm0-22.248V4.405h3.048v3.609zm9.206 12.331v9.917h-3.079v-19.8h3.079v2.173a10.977 10.977 0 0 1 2.34-1.653 11.536 11.536 0 0 1 4.835-1.1v3.03a7.875 7.875 0 0 0-3.265.8 6.9 6.9 0 0 0-3.911 6.634zm-15.349 7.51a1.985 1.985 0 0 1-3.969 0 1.985 1.985 0 0 1 3.968.001zM102.522 25.54c-.88 1.558-3.162 2.274-5.854 2.274-3.849 0-7.144-3.091-7.3-5.968H107.2c.8-7.743-4.8-11.966-10.53-11.966a10.573 10.573 0 0 0-10.624 10.466 10.574 10.574 0 0 0 10.622 10.467c4.145 0 7.385-1.481 8.833-3.814zm-5.854-12.661c3.971 0 6.65 3.3 7.451 5.968H89.278c.678-2.663 3.48-5.968 7.39-5.968zm22.938 14.936a7.469 7.469 0 1 1 0-14.936c3.027 0 5.455 1.134 6.492 3.209l2.785-1.365c-1.563-2.952-5-4.844-9.277-4.844a10.573 10.573 0 0 0-10.622 10.466 10.574 10.574 0 0 0 10.622 10.468c4.279 0 7.714-1.892 9.277-4.844l-2.783-1.364c-1.038 2.074-3.467 3.209-6.494 3.209zm-76.545-1.951L48.245 9.88c3.206 0 5.781 1.419 6.952 3.63l-1.417.7-1.022.509-.344.16a4.017 4.017 0 0 0-2.137-1.662 6.021 6.021 0 0 0-2.032-.337 6.9 6.9 0 0 0-2.062.337A2.728 2.728 0 0 0 44 15.756a2.861 2.861 0 0 0 2.187 2.754 6.029 6.029 0 0 0 2.062.337c3.941 0 5.819 1.561 6.773 3.06a6.426 6.426 0 0 1 .978 3.03 6.173 6.173 0 0 1-.986 2.907c-.923 1.469-2.863 2.969-6.773 2.969v.005c-3.414 0-6.158-1.509-7.4-3.866l2.783-1.365a4.215 4.215 0 0 0 2.312 1.888 7.644 7.644 0 0 0 2.309.337 7.239 7.239 0 0 0 2.248-.337c1.078-.337 2.464-1.01 2.464-2.54 0-1.591-1.354-2.356-2.464-2.724a7.058 7.058 0 0 0-2.248-.367c-3.726-.031-5.541-1.53-6.4-3.03a6.978 6.978 0 0 1-.894-3.06 6.584 6.584 0 0 1 .894-2.938c.862-1.438 2.648-2.938 6.4-2.938m27.363 0c3.208 0 5.782 1.419 6.954 3.63l-1.419.7-1.022.509-.344.16a4.02 4.02 0 0 0-2.135-1.662 6.028 6.028 0 0 0-2.032-.337 6.907 6.907 0 0 0-2.064.337 2.726 2.726 0 0 0-2.185 2.54 2.86 2.86 0 0 0 2.185 2.754 6.04 6.04 0 0 0 2.064.337c3.941 0 5.819 1.561 6.773 3.06a6.426 6.426 0 0 1 .986 3.03 6.173 6.173 0 0 1-.986 2.907c-.923 1.469-2.863 2.969-6.773 2.969v.005c-3.416 0-6.158-1.509-7.406-3.866l2.785-1.365a4.215 4.215 0 0 0 2.311 1.891 7.644 7.644 0 0 0 2.309.337 7.239 7.239 0 0 0 2.248-.337c1.076-.337 2.462-1.01 2.462-2.54 0-1.591-1.354-2.356-2.462-2.724a7.058 7.058 0 0 0-2.248-.367c-3.726-.031-5.542-1.53-6.4-3.03a6.976 6.976 0 0 1-.892-3.06 6.582 6.582 0 0 1 .892-2.938c.862-1.438 2.648-2.938 6.4-2.938" class="cls-1" transform="translate(-10.609 -3.919)"/>
            <path id="Persian" d="M33.136 261.73a1.358 1.358 0 1 0 1.384 1.358 1.372 1.372 0 0 0-1.384-1.358zm107.462.05a1.358 1.358 0 1 0 1.384 1.358 1.373 1.373 0 0 0-1.382-1.358zm3.8 0a1.358 1.358 0 1 0 1.382 1.358 1.373 1.373 0 0 0-1.387-1.358zm-27.762 4.32v6.215a1.8 1.8 0 0 1-1.812 1.779h-1.709a.877.877 0 0 1-.885-.868v-6.443h-1.94v5.532a1.8 1.8 0 0 1-1.813 1.779h-1.709a.878.878 0 0 1-.885-.868V266.1h-1.94v6.215a1.8 1.8 0 0 1-1.813 1.779H84.967a.878.878 0 0 1-.885-.868v-4.275a4.642 4.642 0 0 0-4.682-4.561h-.3l3.8-2.884L81.709 260l-5.782 4.39v1.91H79.4a2.718 2.718 0 0 1 2.74 2.688v3.328a1.8 1.8 0 0 1-1.812 1.779H34.993a.877.877 0 0 1-.885-.868V266.1h-1.94v6.222a1.8 1.8 0 0 1-1.812 1.772H14.4a.877.877 0 0 1-.885-.868v-4.586a4.063 4.063 0 0 0-1.264-3 4.238 4.238 0 0 0-3.067-1.252 5.641 5.641 0 0 0-3.268.847c-.122.085-.367.252-.487.337l-.306.224 1.121 1.516s.405-.261.8-.527a3.849 3.849 0 0 1 2.144-.482 2.365 2.365 0 0 1 1.7.681 2.24 2.24 0 0 1 .7 1.652v3.641a1.882 1.882 0 0 1-.388 1.339 2.532 2.532 0 0 1-1.765.469H4v1.905h5.424a4.765 4.765 0 0 0 2.733-.7c.071-.05.136-.106.2-.16a2.84 2.84 0 0 0 2.043.862h15.954a3.769 3.769 0 0 0 2.51-.954 2.838 2.838 0 0 0 2.128.954H80.33a3.772 3.772 0 0 0 2.51-.954 2.834 2.834 0 0 0 2.126.954h17.164a3.773 3.773 0 0 0 2.512-.954 2.834 2.834 0 0 0 2.126.954h1.709a3.769 3.769 0 0 0 2.51-.954 2.84 2.84 0 0 0 2.128.954h1.709a3.723 3.723 0 0 0 3.753-3.684V266.1zm103.782-5.379v11.594a1.8 1.8 0 0 1-1.812 1.779h-30.553a.877.877 0 0 1-.885-.868V266.1h-1.942v6.215a1.8 1.8 0 0 1-1.812 1.779h-1.709a.877.877 0 0 1-.885-.868v-6.443h-1.94v5.532a1.8 1.8 0 0 1-1.813 1.779h-1.709a.878.878 0 0 1-.885-.868V266.1h-1.94v6.215a1.8 1.8 0 0 1-1.813 1.779h-12.3a.877.877 0 0 1-.885-.868V266.1h-1.94v6.215a1.8 1.8 0 0 1-1.813 1.779H128.22v.009a2.877 2.877 0 0 1-2.071-.85 2.784 2.784 0 0 1-.868-2.053 3.4 3.4 0 0 1 1.408-2.985l.77-.542-1.094-1.54-.461.29-.339.231a5.179 5.179 0 0 0-2.237 4.546 4.576 4.576 0 0 0 1.438 3.39 4.787 4.787 0 0 0 3.453 1.41h25.558a3.773 3.773 0 0 0 2.512-.954 2.834 2.834 0 0 0 2.126.954h12.3a3.773 3.773 0 0 0 2.512-.954 2.834 2.834 0 0 0 2.126.954h1.709a3.769 3.769 0 0 0 2.51-.954 2.84 2.84 0 0 0 2.128.954h1.709a3.769 3.769 0 0 0 2.51-.954 2.838 2.838 0 0 0 2.128.954H218.6a3.722 3.722 0 0 0 3.753-3.684v-11.6z" class="cls-1" transform="translate(-4 -216.936)"/>
            <path id="clock" d="M717.974 44.044l-3.178 1.49a7.578 7.578 0 0 1-7.474 6.08 7.469 7.469 0 1 1 0-14.936 7.649 7.649 0 0 1 5.874 2.728l2.74-1.342a10.984 10.984 0 0 0-2-2.058.309.309 0 0 0 .033-.05l.659-1.306a.365.365 0 0 0-.163-.492l-2.627-1.311a.37.37 0 0 0-.494.163l-.624 1.238a10.516 10.516 0 0 0-3.4-.569 10.659 10.659 0 0 0-3.4.558l-.619-1.224a.368.368 0 0 0-.492-.162l-2.629 1.311a.367.367 0 0 0-.163.49l.661 1.306a.217.217 0 0 0 .017.028 10.4 10.4 0 0 0-3.993 8.159 10.639 10.639 0 0 0 21.276 0c-.002-.034-.004-.067-.004-.101z" class="cls-1" transform="translate(-576.272 -27.718)"/>
            <path id="plane" d="M751.559 79.482a1.985 1.985 0 0 0-1.667-.442 15.465 15.465 0 0 0-3.272 1.513c-1.337.72-2.653 1.532-2.94 1.732l-1.469-1.135a1.129 1.129 0 0 0-1.035-.122l-.377.2a.161.161 0 0 0-.059.252l.056.064 2.556 2.547a.739.739 0 0 0 .718.136h.005l5.063-2.326c.421-.179 1.439-.7 1.843-.911.602-.319 1.383-.912.578-1.508z" class="cls-1" transform="translate(-612.624 -65.878)"/>
            <path id="windows" d="M769.825 88.778a.357.357 0 1 0-.36.351.355.355 0 0 0 .36-.351zm1.306-.647a.357.357 0 1 0-.36.353.358.358 0 0 0 .359-.353zm1.306-.645a.357.357 0 1 0-.36.351.355.355 0 0 0 .359-.351z" class="cls-1" transform="translate(-636.093 -72.596)"/>
            <path id="Exclusion_1" d="M28.47 59.058A28.585 28.585 0 0 1 2.244 41.712a28.076 28.076 0 0 1 .665-23.442A28.848 28.848 0 0 1 10.7 8.609l-.014-.022a.456.456 0 0 1-.032-.053L8.886 5a1 1 0 0 1 .438-1.328L16.369.119a.967.967 0 0 1 .439-.1.978.978 0 0 1 .88.543l1.659 3.315a28.276 28.276 0 0 1 9.123-1.516A27.924 27.924 0 0 1 37.584 3.9L39.257.548A.987.987 0 0 1 40.142 0a.965.965 0 0 1 .439.1l7.041 3.551a.995.995 0 0 1 .437 1.333l-1.766 3.54a.842.842 0 0 1-.088.137 29.593 29.593 0 0 1 5.354 5.575l-7.344 3.635a20.193 20.193 0 1 0 4.287 16.6l8.517-4.035v.273a27.786 27.786 0 0 1-2.257 11.005 28.643 28.643 0 0 1-26.3 17.346zm.442-23.048a1.929 1.929 0 0 1-1.3-.476H27.6l-6.85-6.9-.149-.174a.462.462 0 0 1-.092-.375.472.472 0 0 1 .25-.307l1.011-.533a2.363 2.363 0 0 1 1.005-.205 3.181 3.181 0 0 1 1.768.535l3.937 3.074c.7-.492 4.182-2.678 7.88-4.69.294-.16.637-.351 1-.553 2.191-1.221 5.5-3.063 7.77-3.543a5.1 5.1 0 0 1 1.054-.114A5.655 5.655 0 0 1 49.6 23.06a1.833 1.833 0 0 1 .919 1.555c-.083 1.1-1.578 2.052-2.461 2.522-1.132.607-3.826 1.989-4.939 2.467l-13.569 6.3h-.014a1.77 1.77 0 0 1-.624.106zm5.788-6.932a.958.958 0 0 0 0 1.916.958.958 0 0 0 0-1.916zm3.5-1.752a.961.961 0 0 0 0 1.921.961.961 0 0 0 .006-1.921h-.009zm3.5-1.748a.959.959 0 0 0-.01 1.922h.01a.959.959 0 0 0 .006-1.917H41.7z" class="cls-1" data-name="Exclusion 1" transform="translate(232.737)"/>
        </g>
    </g>
</svg>
