<svg xmlns="http://www.w3.org/2000/svg" width="1929.465" height="1081" viewBox="0 0 1929.465 1081">
  <g id="Group_1111" data-name="Group 1111" transform="translate(6)">
    <g id="Group_1110" data-name="Group 1110">
      <path id="_2663810" data-name="2663810" d="M0,0H1929.465V1081H0Z" transform="translate(-6)" fill="#e4e2bf"/>
      <g id="Group_532" data-name="Group 532" transform="translate(27 -80)">
        <g id="Group_332" data-name="Group 332" transform="translate(-29 81)" opacity="0.47">
          <path id="Path_4909" data-name="Path 4909" d="M1920,1080h0Z" fill="#ebf1d7"/>
          <path id="Path_4248" data-name="Path 4248" d="M764.114,735.011q62.473-.687,123.506-6.566c6.67-.644,4.858-5.726-1.855-5.078q-60.958,5.874-123.5,6.566C755.416,730.009,757.329,735.087,764.114,735.011Zm-98.941,3.983A952.778,952.778,0,0,1,560,739.1c-17.81-.991-35.493-2.521-52.923-4.547-8.06-.935-16.408-1.821-24.227-3.162-2.868-.492-10.118-1.639-11.846-3.089-4.005-3.361,3.571-5.523,8.617-6.543,15.94-3.223,35.624-3.257,52.692-3.393,19.1-.151,38.208.549,57.116,1.821,35.781,2.406,70.863,6.754,105.8,11.1,6.639.825,9.473-4.134,2.83-4.959-43.638-5.426-87.606-10.8-132.657-12.565a642.85,642.85,0,0,0-66.847.68c-12.983.847-34.157,2.227-39.371,9.336-3.74,5.1,4.627,9.078,13.44,11.184,18.156,4.339,41.326,5.845,61.114,7.48a960.287,960.287,0,0,0,131.432,1.7C671.9,743.768,671.981,738.621,665.172,738.994Zm-223.73,18.045c89.238,1.97,178.833,2.717,267.694-2.443,91-5.286,180.795-15.52,272.548-17.69a1315.987,1315.987,0,0,1,157.732,5.536c48.737,4.73,97.094,13.593,147.525,10.368,6.7-.428,6.785-5.577,0-5.143-47.009,3.007-91.9-4.761-137.253-9.444a1313.877,1313.877,0,0,0-132.142-6.869c-92.4-.16-183.1,9.519-274.126,15.889-180.568,12.636-360.9.317-542.07.065-67.45-.1-135.11,1.808-201.35,7.655v5.253C144.841,747.269,294.808,753.8,441.443,757.039Zm403.169,58.882c-2.9,1.171-1.5,4.013,2.35,4.3,66.209,4.929,132.91,2.938,198.981-1.529,32.932-2.227,65.764-4.923,98.469-7.826,25.164-2.233,50.208-5.426,68.932-14.329,2.807-1.333,1.547-3.83-2.35-4.3-134.822-16.163-274.241-8-410.081.408-6.7.415-6.789,5.564,0,5.143,131.443-8.13,266.523-16.209,397.237-1.734-17.941,6.415-40.631,8.484-62.477,10.364-30.778,2.646-61.6,5.221-92.563,7.312-59.992,4.054-120.968,6.048-181.2,2.352,53.668-16.913,127.008-5.581,186.785-11.476,6.708-.661,3.871-5.62-2.83-4.959C979.227,806.216,901.843,792.847,844.612,815.921Zm811.8,242.626q-148.3,1.821-295.841,9.988c-47.478,2.642-95.005,5.709-142.894,5.6-48.814-.115-97.6-2.905-146.078-5.426-53.96-2.8-107.77-6.53-159.729-14.319-6.563-.985-9.37,3.979-2.834,4.959,44.091,6.61,89.568,10.323,135.322,13.008,48.019,2.817,96.445,5.439,144.772,6.547,49.82,1.141,99.122-1.132,148.55-3.929,49.348-2.793,98.742-5.275,148.285-7.111q85.1-3.153,170.446-4.169C1663.254,1063.608,1663.281,1058.463,1656.415,1058.547ZM99.786,801.943,0,809.216V814.6c34.257-2.38,68.44-5.206,102.616-7.694C109.371,806.412,106.5,801.455,99.786,801.943ZM159.978,781.9c6.858.089,6.854-5.057,0-5.143a1287.022,1287.022,0,0,0-133.037,5.091c-9.028.823-18,1.771-26.941,2.789v5.277A1258.687,1258.687,0,0,1,159.978,781.9Zm69.6-188.5c4.977-3.67,1.475-7.284-6.555-8.811-14.166-2.694-33.715-2.547-48.745-3.041-19.78-.65-39.617-.719-59.432-.505-36.561.4-77.265-.387-112.493,4.89A7.369,7.369,0,0,0,0,586.641V590.2a8.1,8.1,0,0,0,5.188.693c28.17-4.219,59.666-3.81,88.934-4.38s58.652-.732,87.871.46c8.095.331,16.182.756,24.219,1.322,2.588.184,8.022.115,10.2.791,6.831,2.112-.737,3.326-5.076,4.24-12.8,2.691-27.782,3.834-41.576,4.389-27.525,1.106-55.135-.447-82.437-2.035-6.789-.4-6.732,4.752,0,5.143,34.61,2.011,70.019,3.931,104.548.551C203.551,600.227,222.405,598.689,229.578,593.4Zm306.666,95.487c52.113-2.981,103.8-3.121,156.123-1.516,59.19,1.814,118.46,4.5,177.658,1.283,6.735-.365,6.812-5.512,0-5.143-104.39,5.676-208.881-5.761-313.544-.827-103.093,4.86-203.689,17.142-307.845,16.6-60.419-.313-120.576-3.38-180.611-6.445-6.8-.346-6.755,4.8,0,5.145,104.94,5.355,208.216,9.048,313.248,2.078C433.018,696.626,484.362,691.854,536.245,688.884Zm-179.4-86.979C244.42,626.015,117.55,619.855,0,609.083V614.3c119.892,10.893,247.753,16.591,362.22-7.955C368.471,605.007,363.057,600.573,356.844,601.906ZM222.374,820.934c71.24-1.376,142.061,3.093,212.533,7.543,78.893,4.981,158.3,9.787,237.93,6.271,6.77-.3,6.835-5.445,0-5.143-161.065,7.111-319.05-19.343-480.234-12.941-36.806,1.462-73.4,4.266-109.313,8.424C55.711,828.28,26.807,831.9,0,837.149v5.676c6.409-1.2,12.914-2.279,19.338-3.354A1401.208,1401.208,0,0,1,222.374,820.934ZM458.047,618.8c29.526-1.443,59.332-1.413,88.973-1.328,57.93.166,118.2,1.331,174.547-6.391,6.363-.871,15.31-1.944,15.014-6.05-.25-3.458-7.542-5.27-13.114-6.469-27.022-5.813-57.953-9.733-86.677-13.027-60.357-6.921-119.3-3.886-180.307-1.216-62.1,2.719-129.3,3.037-182.016-15.461-5.553-1.948-10.871,2.514-5.376,4.443,90.252,31.668,205.263,10.161,306.417,12.9,29.848.808,59.052,3.987,87.629,8.1,13.713,1.976,27.287,4.169,40.819,6.419,2.961.49,19.142,2.484,19.043,3.981-.115,1.73-14.458,2.659-18.735,3.11-57.343,6.035-116.544,4.456-174.8,4.488-48.845.028-113.791-1.892-151.066,16.451-4.8,2.365,2.719,6,7.53,3.637C404.989,623.007,431.831,620.078,458.047,618.8ZM25.094,672.432c-8.39-.035-16.75-.21-25.094-.449v5.141c8.344.242,16.7.417,25.094.451C31.949,677.6,31.956,672.46,25.094,672.432Zm880.374-60.076q-61.937-3.651-124.32-2.08c-6.82.173-6.862,5.318,0,5.145q62.312-1.575,124.32,2.078C912.253,617.9,912.2,612.753,905.468,612.356Zm-624.795,47.4-197-2.054c-6.858-.071-6.854,5.072,0,5.143l197,2.054C287.528,664.969,287.528,659.826,280.673,659.755Zm0,360.625-197-2.054c-6.858-.071-6.854,5.072,0,5.143l197,2.054C287.528,1025.594,287.528,1020.451,280.673,1020.38ZM232.4,560.362c6.639.832,9.473-4.128,2.834-4.959-46.437-5.817-94-3.247-140.571.825C63.057,558.991,31.523,561.982,0,564.991v5.26q43.8-4.144,87.656-8.18C135.483,557.714,184.524,554.366,232.4,560.362ZM905.468,972.981q-61.937-3.652-124.32-2.078c-6.82.173-6.862,5.316,0,5.143q62.312-1.575,124.32,2.08C912.253,978.525,912.2,973.378,905.468,972.981Zm-447.421,6.441c29.526-1.443,59.332-1.413,88.973-1.328,57.93.166,118.2,1.333,174.547-6.389,6.363-.873,15.31-1.946,15.014-6.052-.25-3.456-7.542-5.27-13.114-6.469-27.022-5.813-57.953-9.733-86.677-13.027-60.357-6.921-119.3-3.884-180.307-1.214-62.1,2.717-129.3,3.035-182.016-15.461-5.553-1.948-10.871,2.512-5.376,4.441,90.252,31.668,205.263,10.163,306.417,12.9,29.848.808,59.052,3.987,87.629,8.1,13.713,1.976,27.287,4.171,40.819,6.419,2.961.493,19.142,2.484,19.043,3.981-.115,1.73-14.458,2.659-18.735,3.11-57.343,6.037-116.544,4.456-174.8,4.488-48.845.028-113.791-1.892-151.066,16.453-4.8,2.363,2.719,6,7.53,3.635C404.989,983.632,431.831,980.7,458.047,979.422Zm186.417,86.35c62.765,1.948,125.284,5.934,187.772,9.31,6.8.367,6.743-4.778,0-5.143-107.816-5.823-218.642-14.943-327.083-7.791-46.717,3.08-89.641,11.074-134.077,17.852h31.473c24.6-3.994,49.259-7.852,74.707-10.375C532.189,1064.178,588.7,1064.038,644.463,1065.772ZM356.844,962.531C244.42,986.641,117.55,980.48,0,969.708v5.219c119.892,10.893,247.753,16.593,362.22-7.953C368.471,965.632,363.057,961.2,356.844,962.531Zm179.4,86.981c52.113-2.983,103.8-3.123,156.123-1.518,59.19,1.814,118.46,4.5,177.658,1.285,6.735-.367,6.812-5.514,0-5.145-104.39,5.677-208.881-5.761-313.544-.827-103.093,4.86-203.689,17.144-307.845,16.6-60.419-.313-120.576-3.38-180.611-6.443-6.8-.348-6.755,4.8,0,5.143,104.94,5.355,208.216,9.048,313.248,2.078C433.018,1057.251,484.362,1052.479,536.245,1049.512Zm-511.15-16.455c-8.39-.035-16.75-.209-25.094-.449v5.141c8.344.242,16.7.419,25.094.454C31.949,1038.228,31.956,1033.085,25.094,1033.057ZM232.4,920.987c6.639.832,9.473-4.128,2.834-4.959-46.437-5.815-94-3.246-140.571.825C63.057,919.618,31.523,922.607,0,925.616v5.262q43.8-4.147,87.656-8.182C135.483,918.339,184.524,914.993,232.4,920.987Zm124.723-5.579c-6.136,1.478-.749,5.916,5.372,4.443,66.8-16.077,143.647-15.671,213.865-26.495,6.5-1,3.721-5.972-2.834-4.961C502.322,899.374,424.9,899.1,357.124,915.408Zm596.506-15.671c-97.471-2.862-192.949-26-291.233-13.394-6.616.849-3.809,5.813,2.83,4.959,96.806-12.42,192.23,10.755,288.4,13.578C960.476,905.083,960.449,899.938,953.629,899.737ZM265.071,877.273c26.427-5.13,53.914-8.938,81.677-11.96,59.555-6.484,120.611-9.884,181.632-10.433,63.364-.57,128.041,4.432,190.495-2.564,6.67-.747,3.848-5.709-2.834-4.959-54.912,6.152-111.379,2.4-167.078,2.3-55.357-.093-110.734,2.216-165.251,6.856-54.374,4.627-106.176,11.975-156.319,23.157-51.487,11.483-101.672,21.032-159.183,21.792-21.051.279-44.878-.225-68.21-2.236V904.1c9.216.776,18.386,1.354,27.276,1.791a655.981,655.981,0,0,0,159.683-11.8C213.281,888.8,238.606,882.41,265.071,877.273ZM476.46,916.6c-6.762.438-3.882,5.4,2.83,4.959,100.42-6.528,202.061-13.064,303.483-8.327,48.177,2.249,96.015,7.119,141.224,15.565,36.933,6.9,78.236,17.736,116.475,6.385,5.829-1.73.484-6.18-5.376-4.441-41.76,12.4-93.316-4.979-133.605-11.232-43.181-6.7-88.213-10.39-133.382-12.029C670.51,903.945,573,910.33,476.46,916.6ZM245.614,851.69c2.8-1.724,1.179-4.3-3.763-4.389a1911.442,1911.442,0,0,0-205.574,7.145c-6.728.6-3.878,5.558,2.834,4.962a1881.934,1881.934,0,0,1,191.34-7.143c-39.4,19.483-104.072,20.323-157.24,19.367-24.53-.443-48.991-1.637-73.21-3.549v5.186q23.835,1.844,47.919,2.791C113.38,878.584,200.69,879.39,245.614,851.69ZM229.578,954.022c4.977-3.67,1.475-7.284-6.555-8.808-14.166-2.7-33.715-2.549-48.745-3.043-19.78-.65-39.617-.719-59.432-.5-36.561.4-77.265-.387-112.493,4.888A7.423,7.423,0,0,0,0,947.266v3.555a8.071,8.071,0,0,0,5.188.693c28.17-4.219,59.666-3.808,88.934-4.38s58.652-.73,87.871.46c8.095.331,16.182.756,24.219,1.322,2.588.184,8.022.115,10.2.791,6.831,2.113-.737,3.329-5.076,4.24-12.8,2.691-27.782,3.834-41.576,4.389-27.525,1.106-55.135-.447-82.437-2.035-6.789-.393-6.732,4.754,0,5.145,34.61,2.011,70.019,3.929,104.548.551C203.551,960.852,222.405,959.314,229.578,954.022Zm961.087-29.981c24.6,1.89,48.726,1.855,72.718-1.6,26.365-3.8,51.068-10.169,78.7-11.707,6.732-.374,6.808-5.521,0-5.143-25.678,1.428-48.664,6.564-72.887,10.547-30.14,4.953-59.009,4.676-89.983,1.683-26.627-2.573-52.931-6.1-80.179-6.776a466.084,466.084,0,0,0-81.546,5.247c-6.509.994-3.729,5.962,2.834,4.959a448.977,448.977,0,0,1,83.485-4.916C1133.276,917.38,1161.592,921.806,1190.665,924.042ZM477.254,709c54.935-5.448,111.448-5.588,167.209-3.856,62.765,1.951,125.284,5.936,187.772,9.312,6.8.367,6.743-4.78,0-5.143-107.816-5.826-218.642-14.943-327.083-7.793-52.347,3.452-99.921,13.077-150.209,20.243a1377.765,1377.765,0,0,1-160.531,13.178,1427.393,1427.393,0,0,1-173.748-6.4c8.978-4.372,22.506-5.743,35.186-6.363,17.652-.866,35.589-.985,53.318-1.1q56.621-.382,113.034,2.4c6.816.326,6.766-4.819,0-5.145-44.394-2.132-89.019-2.916-133.613-2.162-27.583.467-65.737-.449-81.919,12.753-1.674,1.365-.2,3.426,3.183,3.778a1451,1451,0,0,0,312.307-1.4C374.746,725.265,424.3,714.252,477.254,709ZM232.4,189.635c6.639.832,9.473-4.128,2.834-4.959-46.437-5.815-94-3.246-140.571.825C63.057,188.266,31.523,191.255,0,194.264v5.262q43.8-4.147,87.656-8.182C135.483,186.987,184.524,183.639,232.4,189.635Zm244.059-4.383c-6.762.438-3.882,5.4,2.83,4.959,100.42-6.528,202.061-13.064,303.483-8.329C830.949,184.133,878.788,189,924,197.45c36.933,6.9,78.236,17.736,116.475,6.385,5.829-1.73.484-6.18-5.376-4.441-41.76,12.4-93.316-4.979-133.605-11.232-43.181-6.7-88.213-10.39-133.382-12.029C670.51,172.593,573,178.978,476.46,185.252Zm714.205,7.437c24.6,1.89,48.726,1.855,72.718-1.6,26.365-3.793,51.068-10.167,78.7-11.705,6.732-.374,6.808-5.521,0-5.143-25.678,1.428-48.664,6.564-72.887,10.547-30.14,4.953-59.009,4.676-89.983,1.683-26.627-2.573-52.931-6.1-80.179-6.776a466.081,466.081,0,0,0-81.546,5.247c-6.509.994-3.729,5.962,2.834,4.959a448.977,448.977,0,0,1,83.485-4.916C1133.276,186.028,1161.592,190.454,1190.665,192.689ZM229.578,222.67c4.977-3.67,1.475-7.284-6.555-8.811-14.166-2.694-33.715-2.547-48.745-3.041-19.78-.65-39.617-.719-59.432-.5-36.561.4-77.265-.387-112.493,4.888A7.424,7.424,0,0,0,0,215.914v3.555a8.085,8.085,0,0,0,5.188.693c28.17-4.218,59.666-3.81,88.934-4.38s58.652-.73,87.871.46c8.095.33,16.182.756,24.219,1.322,2.588.184,8.022.114,10.2.791,6.831,2.112-.737,3.329-5.076,4.24-12.8,2.691-27.782,3.834-41.576,4.389-27.525,1.106-55.135-.447-82.437-2.035-6.789-.393-6.732,4.754,0,5.145,34.61,2.011,70.019,3.929,104.548.549C203.551,229.5,222.405,227.962,229.578,222.67ZM476.46,555.98c-6.762.438-3.882,5.4,2.83,4.959,100.42-6.528,202.061-13.064,303.483-8.329,48.177,2.251,96.015,7.122,141.224,15.567,36.933,6.9,78.236,17.734,116.475,6.385,5.829-1.73.484-6.182-5.376-4.441-41.76,12.394-93.316-4.979-133.605-11.232-43.181-6.7-88.213-10.392-133.382-12.029C670.51,543.318,573,549.7,476.46,555.98Zm-119.616-324.8C244.42,255.288,117.55,249.128,0,238.356v5.219c119.892,10.893,247.753,16.593,362.22-7.955C368.471,234.28,363.057,229.846,356.844,231.178Zm.28-47.12c-6.136,1.475-.749,5.914,5.372,4.441,66.8-16.077,143.647-15.671,213.865-26.5,6.5-1,3.721-5.97-2.834-4.959C502.322,168.02,424.9,167.743,357.124,184.058Zm-111.51-63.72c2.8-1.724,1.179-4.3-3.763-4.389a1911.424,1911.424,0,0,0-205.574,7.145c-6.728.6-3.878,5.558,2.834,4.962a1881.941,1881.941,0,0,1,191.34-7.143c-39.4,19.483-104.072,20.323-157.24,19.367-24.53-.443-48.991-1.637-73.21-3.549v5.186q23.835,1.84,47.919,2.791C113.38,147.232,200.69,148.038,245.614,120.338ZM99.786,70.591,0,77.864v5.383c34.257-2.38,68.44-5.206,102.616-7.7C109.371,75.06,106.5,70.1,99.786,70.591ZM844.612,84.568c-2.9,1.171-1.5,4.013,2.35,4.3,66.209,4.929,132.91,2.938,198.981-1.529,32.932-2.227,65.764-4.923,98.469-7.826,25.164-2.236,50.208-5.426,68.932-14.329,2.807-1.333,1.547-3.83-2.35-4.3-134.822-16.163-274.241-8-410.081.408-6.7.415-6.789,5.564,0,5.143C932.356,58.3,1067.435,50.226,1198.149,64.7c-17.941,6.415-40.631,8.484-62.477,10.364-30.778,2.646-61.6,5.221-92.563,7.312-59.992,4.054-120.968,6.048-181.2,2.352,53.668-16.915,127.008-5.581,186.785-11.476,6.708-.661,3.871-5.62-2.83-4.959C979.227,74.863,901.843,61.5,844.612,84.568ZM159.978,50.544c6.858.089,6.854-5.057,0-5.143A1287.012,1287.012,0,0,0,26.941,50.492c-9.028.823-18,1.771-26.941,2.789v5.277A1258.7,1258.7,0,0,1,159.978,50.544Zm745.49,191.084q-61.937-3.651-124.32-2.078c-6.82.171-6.862,5.316,0,5.143q62.312-1.575,124.32,2.08C912.253,247.173,912.2,242.026,905.468,241.628Zm-640.4-95.707c26.427-5.13,53.914-8.938,81.677-11.96,59.555-6.484,120.611-9.884,181.632-10.435,63.364-.568,128.041,4.434,190.495-2.562,6.67-.75,3.848-5.709-2.834-4.962-54.912,6.154-111.379,2.4-167.078,2.307-55.357-.093-110.734,2.216-165.251,6.856-54.374,4.627-106.176,11.973-156.319,23.157-51.487,11.483-101.672,21.032-159.183,21.792-21.051.279-44.878-.225-68.21-2.236v4.873c9.216.775,18.386,1.354,27.276,1.791a655.981,655.981,0,0,0,159.683-11.8C213.281,157.444,238.606,151.057,265.071,145.921Zm-42.7-56.339c71.24-1.376,142.061,3.091,212.533,7.543,78.893,4.981,158.3,9.787,237.93,6.27,6.77-.3,6.835-5.445,0-5.143C511.772,105.363,353.787,78.909,192.6,85.311c-36.806,1.46-73.4,4.266-109.313,8.424C55.711,96.928,26.807,100.548,0,105.8v5.676c6.409-1.2,12.914-2.279,19.338-3.354A1401.217,1401.217,0,0,1,222.374,89.582Zm731.255,78.8c-97.471-2.862-192.949-26-291.233-13.394-6.616.849-3.809,5.813,2.83,4.959,96.806-12.42,192.23,10.755,288.4,13.578C960.476,173.729,960.449,168.586,953.629,168.385ZM458.047,248.069c29.526-1.443,59.332-1.413,88.973-1.328,57.93.166,118.2,1.333,174.547-6.389,6.363-.873,15.31-1.946,15.014-6.052-.25-3.456-7.542-5.27-13.114-6.469-27.022-5.813-57.953-9.733-86.677-13.027-60.357-6.921-119.3-3.884-180.307-1.214-62.1,2.717-129.3,3.035-182.016-15.461-5.553-1.948-10.871,2.512-5.376,4.441,90.252,31.668,205.263,10.163,306.417,12.9,29.848.808,59.052,3.987,87.629,8.1,13.713,1.976,27.287,4.171,40.819,6.42,2.961.492,19.142,2.484,19.043,3.981-.115,1.73-14.458,2.659-18.735,3.11-57.343,6.035-116.544,4.456-174.8,4.488-48.845.028-113.791-1.892-151.066,16.453-4.8,2.363,2.719,6,7.53,3.635C404.989,252.279,431.831,249.35,458.047,248.069Zm-212.433,243c2.8-1.724,1.179-4.3-3.763-4.391a1911.985,1911.985,0,0,0-205.574,7.147c-6.728.6-3.878,5.558,2.834,4.959a1882.561,1882.561,0,0,1,191.34-7.141c-39.4,19.483-104.072,20.323-157.24,19.367-24.53-.443-48.991-1.637-73.21-3.551v5.186q23.835,1.844,47.919,2.793C113.38,517.959,200.69,518.765,245.614,491.065Zm-23.24-30.758c71.24-1.374,142.061,3.093,212.533,7.543,78.893,4.983,158.3,9.789,237.93,6.273,6.77-.3,6.835-5.445,0-5.143-161.065,7.111-319.05-19.345-480.234-12.943C155.8,457.5,119.205,460.3,83.29,464.46,55.711,467.655,26.807,471.275,0,476.524V482.2c6.409-1.2,12.914-2.277,19.338-3.352A1401.523,1401.523,0,0,1,222.374,460.307Zm42.7,56.341c26.427-5.13,53.914-8.938,81.677-11.962C406.3,498.2,467.359,494.8,528.38,494.253c63.364-.57,128.041,4.434,190.495-2.564,6.67-.747,3.848-5.707-2.834-4.959-54.912,6.152-111.379,2.4-167.078,2.3-55.357-.091-110.734,2.216-165.251,6.856-54.374,4.629-106.176,11.975-156.319,23.16-51.487,11.483-101.672,21.032-159.183,21.792-21.051.276-44.878-.225-68.21-2.236v4.873c9.216.776,18.386,1.354,27.276,1.791a656.093,656.093,0,0,0,159.683-11.8C213.281,528.172,238.606,521.785,265.071,516.648Zm688.558,22.464c-97.471-2.862-192.949-26-291.233-13.394-6.616.849-3.809,5.81,2.83,4.959,96.806-12.42,192.23,10.755,288.4,13.578C960.476,544.456,960.449,539.311,953.629,539.112ZM99.786,441.318,0,448.589v5.383c34.257-2.38,68.44-5.2,102.616-7.694C109.371,445.785,106.5,440.828,99.786,441.318Zm1090.879,122.1c24.6,1.89,48.726,1.855,72.718-1.6,26.365-3.8,51.068-10.167,78.7-11.705,6.732-.374,6.808-5.523,0-5.143-25.678,1.428-48.664,6.564-72.887,10.545-30.14,4.955-59.009,4.679-89.983,1.685-26.627-2.573-52.931-6.1-80.179-6.776a466.079,466.079,0,0,0-81.546,5.244c-6.509,1-3.729,5.964,2.834,4.962a448.977,448.977,0,0,1,83.485-4.916C1133.276,556.755,1161.592,561.181,1190.665,563.417Zm-833.541-8.634c-6.136,1.478-.749,5.916,5.372,4.441,66.8-16.075,143.647-15.669,213.865-26.495,6.5-1,3.721-5.97-2.834-4.959C502.322,538.747,424.9,538.471,357.124,554.783Zm84.319-158.369c89.238,1.97,178.833,2.717,267.694-2.443,91-5.286,180.795-15.52,272.548-17.69a1316,1316,0,0,1,157.732,5.534c48.737,4.73,97.094,13.6,147.525,10.37,6.7-.428,6.785-5.577,0-5.145-47.009,3.007-91.9-4.761-137.253-9.441a1313.221,1313.221,0,0,0-132.142-6.869c-92.4-.16-183.1,9.517-274.126,15.887-180.568,12.638-360.9.32-542.07.065-67.45-.093-135.11,1.81-201.35,7.657v5.253C144.841,386.644,294.808,393.178,441.443,396.414Zm94.8-78.255c52.113-2.983,103.8-3.123,156.123-1.518,59.19,1.814,118.46,4.5,177.658,1.285,6.735-.367,6.812-5.515,0-5.145-104.39,5.676-208.881-5.761-313.544-.827-103.093,4.86-203.689,17.142-307.845,16.6-60.419-.313-120.576-3.38-180.611-6.443-6.8-.348-6.755,4.8,0,5.143,104.94,5.355,208.216,9.048,313.248,2.078C433.018,325.9,484.362,321.127,536.245,318.159ZM25.094,301.7c-8.39-.035-16.75-.21-25.094-.449V306.4c8.344.242,16.7.419,25.094.451C31.949,306.875,31.956,301.732,25.094,301.7Zm694.022,64.817c25.16-2.233,50.2-5.426,68.932-14.327,2.807-1.335,1.544-3.832-2.35-4.3-119.316-14.3-242.231-9.552-363.076-2.445,17.979-2.789,36.1-5.34,54.632-7.178,54.935-5.448,111.448-5.588,167.209-3.856,62.765,1.95,125.284,5.936,187.772,9.312,6.8.367,6.743-4.778,0-5.143-107.816-5.826-218.642-14.943-327.083-7.793-52.347,3.454-99.921,13.077-150.209,20.243a1377.3,1377.3,0,0,1-160.531,13.178,1427.418,1427.418,0,0,1-173.748-6.4c8.978-4.372,22.506-5.743,35.186-6.363,17.652-.866,35.589-.985,53.318-1.1q56.621-.382,113.034,2.4c6.816.328,6.766-4.819,0-5.143-44.394-2.134-89.019-2.918-133.613-2.164-27.583.467-65.737-.449-81.919,12.753-1.674,1.365-.2,3.426,3.183,3.778a1451.009,1451.009,0,0,0,312.307-1.4c17.334-1.992,34.337-4.525,51.241-7.212a10.291,10.291,0,0,0,2.216.082c131.443-8.132,266.523-16.211,397.233-1.734-17.937,6.413-40.627,8.482-62.473,10.362-30.778,2.646-61.6,5.221-92.563,7.314-60,4.052-120.968,6.048-181.2,2.352,53.664-16.915,127-5.581,186.781-11.476,6.712-.661,3.871-5.62-2.83-4.959-66.635,6.569-144.015-6.8-201.251,16.276-2.9,1.169-1.494,4.011,2.35,4.3,66.213,4.929,132.914,2.935,198.981-1.531C653.576,372.12,686.411,369.425,719.117,366.522ZM844.612,455.3c-2.9,1.169-1.5,4.011,2.35,4.3,66.209,4.929,132.91,2.938,198.981-1.531,32.932-2.227,65.764-4.92,98.469-7.826,25.164-2.233,50.208-5.426,68.932-14.327,2.807-1.335,1.547-3.832-2.35-4.3-134.822-16.163-274.241-8-410.081.408-6.7.415-6.789,5.564,0,5.143,131.443-8.132,266.523-16.209,397.237-1.734-17.941,6.413-40.631,8.484-62.477,10.362-30.778,2.648-61.6,5.223-92.563,7.314-59.992,4.052-120.968,6.048-181.2,2.352,53.668-16.915,127.008-5.581,186.785-11.476,6.708-.661,3.871-5.62-2.83-4.959C979.227,445.591,901.843,432.222,844.612,455.3ZM159.978,421.271c6.858.086,6.854-5.057,0-5.143a1287.022,1287.022,0,0,0-133.037,5.091c-9.028.823-18,1.769-26.941,2.789v5.277A1258.7,1258.7,0,0,1,159.978,421.271Zm120.7-132.244-197-2.054c-6.858-.071-6.854,5.072,0,5.143l197,2.054C287.528,294.242,287.528,289.1,280.673,289.027ZM1258.491,359.3a465.874,465.874,0,0,0-81.546,5.244c-6.509,1-3.729,5.964,2.834,4.959a448.974,448.974,0,0,1,83.485-4.916c29.464,1.043,57.78,5.469,86.853,7.7,24.6,1.89,48.726,1.855,72.718-1.6,26.362-3.8,51.068-10.169,78.7-11.705,6.731-.376,6.808-5.523,0-5.145-25.678,1.43-48.664,6.566-72.887,10.547-30.14,4.955-59.009,4.676-89.983,1.685C1312.044,363.5,1285.74,359.975,1258.491,359.3ZM88.589,1076.795c-17.526.3-39.3.05-57.012,3.205H226.088a7.9,7.9,0,0,0-3.886-1.041C177.807,1076.825,133.183,1076.041,88.589,1076.795Zm1567.826-749.6q-148.3,1.821-295.841,9.988c-47.478,2.642-95.005,5.709-142.894,5.6-48.814-.114-97.6-2.905-146.078-5.426-53.96-2.8-107.77-6.53-159.729-14.321-6.563-.983-9.37,3.981-2.834,4.962,44.091,6.61,89.568,10.323,135.322,13.005,48.019,2.817,96.445,5.441,144.772,6.547,49.82,1.143,99.122-1.13,148.55-3.927,49.348-2.793,98.742-5.275,148.285-7.111q85.1-3.153,170.446-4.171C1663.254,332.255,1663.281,327.11,1656.415,327.195Zm20.333,34.759c-91.849-8.726-208.167-39.018-291.03-2.242-5.057,2.244,2.492,5.875,7.53,3.637,76.347-33.884,186.344-6.571,272.267,2.709-17.576,8.418-47.067,9.282-70.33,10.4-30.6,1.477-61.333,1.84-92.049,1.264-6.854-.127-6.843,5.016,0,5.145,37.528.7,75.153.007,112.393-2.4,24.48-1.583,49.394-4.5,64.4-14.733C1681.835,364.431,1679.942,362.256,1676.748,361.953Zm-10.111-21.488c-6.739.352-6.816,5.5,0,5.143,87.076-4.571,162.954,28.238,250.564,20.578a7.086,7.086,0,0,0,2.8-.721V362.39a8.525,8.525,0,0,0-5.63-1.164C1828.427,368.74,1752.768,335.945,1666.637,340.466Zm-6.758-74.578c-86.1-8.832-169.828-20.362-258.432-21.522-91.738-1.2-183.563,4.318-274.775,8.312-91.181,3.992-182.484,9.033-273.942,11.241-104.064,2.512-207.448-2.823-310.694-8.517-6.8-.374-6.743,4.774,0,5.145,91.849,5.063,184.07,10.128,276.676,9.12,93.1-1.013,186.125-6.51,278.8-10.569,91.461-4,183.379-9.523,275.313-9.737,46.161-.106,92.049,1.592,137.464,5.646,44.294,3.957,87.867,9.53,131.812,14.267,88.8,9.571,184.454,15.6,270.9-1.871,6.229-1.259,3.495-6.24-2.83-4.962C1830.378,278.564,1742.373,274.348,1659.878,265.887Zm-596.6,12.036c-6.49,1.022-3.713,5.99,2.83,4.959,161.99-25.512,335.593-18.729,499.254-.374-39.337,6.385-82.38,4.676-123.383,3.933q-74.684-1.354-149.411-2.039c-48.1-.43-96.127-.184-143.359,4.7-24.273,2.51-48.288,5.8-73.056,6.992-23.316,1.123-46.314-.274-69.058-2.793-47.094-5.212-93.2-14.353-142.4-11.861-6.747.341-6.82,5.489,0,5.143,46.683-2.363,90.543,5.994,135.156,11.176,20.966,2.434,42.5,4.208,64.136,3.871,22.514-.35,44.625-2.758,66.486-5.2,100.055-11.176,204.522-6.748,306.351-4.936,50.07.892,102.075,3.117,148.808-7.389,4.2-.944,2.961-4.206-1.271-4.7C1414.241,259.47,1232.364,251.294,1063.277,277.923ZM1585.355,309.2c-104.959-.376-208.677,3.888-312.887,9.422-51.1,2.715-102.517,4.622-153.83,2.145-51.871-2.508-102.555-8.72-153.35-14.131-98.7-10.513-199.054-17.34-299.942-20.326-115.78-3.424-232.059-1.745-347.24,4.86-6.724.385-6.8,5.532,0,5.143,207.9-11.921,419.489-7.62,624.407,13.2,49.782,5.059,99.118,11.305,149.529,14.809,50.711,3.523,101.288,3.158,152.2.845,52.612-2.391,104.955-5.838,157.663-7.78q79.77-2.939,159.844-3.069c101.764-.164,211.4,5.944,304.435-18.395,6.029-1.577.661-6.02-5.376-4.441C1776.61,313.507,1677.746,309.526,1585.355,309.2Zm-417.323,1.477,138.689-6.469c6.762-.315,6.828-5.463,0-5.143q-69.345,3.234-138.689,6.469C1161.27,305.845,1161.2,310.99,1168.032,310.673Zm522.1,191.884c51.322,8.841,106,8.143,159.663,7.141,6.827-.13,6.862-5.273,0-5.145-52.769.987-106.36,1.741-156.833-6.955C1686.493,496.482,1683.709,501.45,1690.13,502.556Zm-192.438-37.325c79.035-10.394,159.187.957,237.009,8.372,37.479,3.57,75.721,6.363,114.033,5.476,23.942-.555,47.547-2.633,71.267-4.121v-5.143c-23.716,1.488-47.317,3.566-71.267,4.119-42.632.987-84.883-2.622-126.455-6.789-74.673-7.484-151.715-16.829-227.42-6.875C1488.253,461.141,1491.057,466.1,1497.692,465.232Zm-118.867,12.545c-41.157,1.331-81.938,4.326-122.166,8.694-44.225,4.8-88.017,10.655-133.3,12.688-44.417,1.992-89.092,1.186-133.6.488q-67.87-1.066-135.767-.795-134.387.7-268.27,7.281-72.1,3.551-143.8,8.789c-48.515,3.542-97.713,6.949-144.042,15.04-6.4,1.117-3.636,6.089,2.83,4.959,39.859-6.962,81.7-10.305,123.414-13.5q66.309-5.074,133.052-8.672,132.267-7.138,265.5-8.513,65.22-.674,130.468.045c44.532.49,89.092,1.763,133.647,1.082,86.239-1.318,167.259-15.764,252.422-20.667a1576.558,1576.558,0,0,1,287.009,9.729c6.636.842,9.466-4.117,2.834-4.959A1590.648,1590.648,0,0,0,1378.825,477.777Zm343.069-23.071h35.5c6.854,0,6.866-5.143,0-5.143h-35.5C1715.044,449.563,1715.032,454.706,1721.894,454.706Zm-598.118-56.074c-91.392-7.042-181.221-8.854-272.632-.959-47.3,4.085-94.187,9.474-141.972,12.148-45.865,2.564-92.133,2.4-138.186,1.331-102.371-2.385-205.244-8.992-307.119-.251-6.735.579-3.882,5.536,2.83,4.962,93.251-8,187.884-2.845,281.618-.162,46.011,1.318,92.225,2.05,138.236.324,46.307-1.737,91.784-6.366,137.288-10.651,47.328-4.454,94.687-8.061,143.013-8.268,48.215-.207,96.307,2.2,143.919,5.718,90.305,6.668,179.3,17.232,270.259,21.842,94.748,4.8,192.131,3.013,280.681-15.438,6.275-1.307.856-5.739-5.376-4.441C1485.611,440.357,1297.628,412.026,1123.776,398.632Zm396.261-7.722c-51.725,1.238-103.473-.7-155.017-2.624-6.835-.255-6.8,4.89,0,5.145,51.544,1.922,103.292,3.86,155.017,2.622,52.474-1.253,103.542-7.484,155.816-9.472C1758.4,383.445,1838.327,398.65,1920,399.1v-5.085c-36.211-.218-72.254-3.512-107.931-6.722-46.913-4.218-93.481-7.741-141.331-5.648C1620.23,383.856,1570.79,389.7,1520.037,390.91ZM1744.788,411.1c61.286-3.216,117.028,12.07,175.212,18.744v-4.858c-58.08-6.62-114-22.242-175.212-19.03C1738.049,406.315,1737.972,411.463,1744.788,411.1ZM1215.46,468.167c-113.011,11.184-235.68,22.548-348.76,5.815-53.806-7.96-104.2-20.455-158.565-27.65-52-6.882-105.865-9.949-159.621-11.191-127.158-2.938-255.137,4.165-381.65-4.834-6.7-.477-9.6,4.478-2.834,4.959,110.454,7.858,222,3.73,333.131,4.327,57.051.3,114.324,1.9,170.358,7.37,54.8,5.355,105.178,15.837,157.16,25.393A896.934,896.934,0,0,0,985.3,487.439c56.943.186,113.771-3.732,169.743-8.471,115.941-9.815,229.609-24.952,345.431-35.065,128.9-11.254,262.932-15.98,391.016.086,6.639.834,9.469-4.126,2.83-4.959C1667.266,410.549,1437.577,446.185,1215.46,468.167Zm488.682-143.286c-6.8.225-6.85,5.372,0,5.143,44.828-1.488,89.238,2.244,134,2.406,28.14.1,55.127-2.1,81.854-5.32v-5.329c-28.355,3.454-56.9,5.759-86.9,5.469C1790.028,326.836,1747.284,323.447,1704.142,324.881ZM1215.46,97.44c-113.011,11.184-235.68,22.548-348.76,5.817C812.893,95.295,762.5,82.8,708.134,75.6c-52-6.882-105.865-9.949-159.621-11.191-127.158-2.938-255.137,4.164-381.65-4.834-6.7-.477-9.6,4.48-2.834,4.959,110.454,7.858,222,3.732,333.131,4.326,57.051.307,114.324,1.9,170.358,7.372,54.8,5.352,105.178,15.835,157.16,25.391A896.736,896.736,0,0,0,985.3,116.711c56.943.186,113.771-3.732,169.743-8.472,115.941-9.815,229.609-24.95,345.431-35.063,128.9-11.256,262.932-15.982,391.016.084,6.639.834,9.469-4.126,2.83-4.959C1667.266,39.822,1437.577,75.457,1215.46,97.44Zm529.329-57.063c61.286-3.216,117.028,12.07,175.212,18.744V54.263c-58.08-6.618-114-22.242-175.212-19.03C1738.049,35.588,1737.972,40.735,1744.788,40.377Zm-22.894,43.6h35.5c6.854,0,6.866-5.145,0-5.145h-35.5C1715.044,78.836,1715.032,83.981,1721.894,83.981ZM1123.776,27.9c-91.392-7.042-181.221-8.854-272.632-.959-47.3,4.085-94.187,9.474-141.972,12.148-45.865,2.566-92.133,2.4-138.186,1.331-102.371-2.385-205.244-8.992-307.119-.248-6.735.577-3.882,5.536,2.83,4.959,93.251-8,187.884-2.845,281.618-.162,46.011,1.318,92.225,2.05,138.236.324,46.307-1.737,91.784-6.366,137.288-10.651,47.328-4.454,94.687-8.061,143.013-8.268,48.215-.207,96.307,2.2,143.919,5.718,90.305,6.668,179.3,17.232,270.259,21.842,94.748,4.8,192.131,3.013,280.681-15.438,6.275-1.307.856-5.739-5.376-4.441C1485.611,69.63,1297.628,41.3,1123.776,27.9Zm373.916,66.6c79.035-10.394,159.187.957,237.009,8.372,37.479,3.57,75.721,6.363,114.033,5.476,23.942-.555,47.547-2.631,71.267-4.121V99.088c-23.716,1.49-47.317,3.566-71.267,4.121-42.632.985-84.883-2.622-126.455-6.789-74.673-7.484-151.715-16.831-227.42-6.875C1488.253,90.413,1491.057,95.377,1497.692,94.5ZM743.42,15.891c-180.568,12.636-360.9.318-542.07.065C133.9,15.861,66.24,17.764,0,23.611v5.253c144.841-12.947,294.808-6.413,441.443-3.177,89.238,1.97,178.833,2.717,267.694-2.443,91-5.286,180.795-15.52,272.548-17.69a1316,1316,0,0,1,157.732,5.536c48.737,4.728,97.094,13.593,147.525,10.368,6.7-.428,6.785-5.577,0-5.143-47.009,3-91.9-4.763-137.253-9.444A1313.217,1313.217,0,0,0,1017.546,0C925.144-.158,834.443,9.521,743.42,15.891Zm776.617,4.292c-51.725,1.238-103.473-.7-155.017-2.624-6.835-.255-6.8,4.89,0,5.145,51.544,1.925,103.292,3.86,155.017,2.624,52.474-1.255,103.542-7.487,155.816-9.474C1758.4,12.718,1838.327,27.922,1920,28.376V23.291c-36.211-.218-72.254-3.512-107.931-6.72-46.913-4.221-93.481-7.741-141.331-5.651C1620.23,13.128,1570.79,18.971,1520.037,20.183Zm157.194,152.179a1595.492,1595.492,0,0,1,199-4.791c6.835.259,6.8-4.886,0-5.143A1617.928,1617.928,0,0,0,1674.4,167.4C1667.666,167.99,1670.519,172.947,1677.231,172.361Zm-226.956,38.014c-54.724,2.979-110.012,2.534-164.886.821q-94.4-2.948-187.611-11.156c-6.7-.585-9.577,4.37-2.83,4.959,107.789,9.422,220.113,15.578,329.687,11.666,52.3-1.866,102.547-7.338,152.748-14.478,50.611-7.2,101.76-15.142,154.921-16.029,61.409-1.024,121.452,8.936,182.949,5.543,2.515-.138,4.1-.946,4.746-1.881V187.9c-.641-.858-2.216-1.484-4.746-1.344-54.186,2.989-107.009-4.452-160.9-5.506-50.312-.983-99.46,4.847-147.422,11.565C1555.158,199.869,1504.07,207.444,1450.276,210.375Zm-223.845-39.042c-5.057,2.244,2.488,5.873,7.53,3.637,76.347-33.884,186.344-6.573,272.264,2.706-17.576,8.418-47.063,9.282-70.326,10.4-30.6,1.475-61.333,1.84-92.053,1.264-6.854-.13-6.843,5.016,0,5.143,37.528.7,75.153.006,112.4-2.4,24.476-1.583,49.394-4.5,64.4-14.736,1.9-1.3.015-3.473-3.18-3.778C1425.611,164.847,1309.294,134.557,1226.431,171.333ZM1649,207.511c-3.744,5.1,4.623,9.078,13.44,11.187,18.152,4.339,41.326,5.845,61.11,7.478a960,960,0,0,0,131.436,1.7c6.731-.369,6.808-5.517,0-5.143a952.84,952.84,0,0,1-105.178.1c-17.806-.991-35.493-2.523-52.923-4.547-8.056-.935-16.408-1.821-24.227-3.162-2.868-.492-10.118-1.639-11.846-3.089-4-3.361,3.575-5.523,8.617-6.543,15.94-3.223,35.628-3.257,52.693-3.393,19.1-.151,38.208.549,57.116,1.821,35.785,2.406,70.867,6.754,105.8,11.1,6.643.825,9.477-4.134,2.834-4.959-43.642-5.426-87.61-10.8-132.661-12.565a642.9,642.9,0,0,0-66.847.68C1675.392,199.024,1654.218,200.4,1649,207.511Zm41.126-75.682c51.322,8.843,106,8.143,159.663,7.141,6.827-.127,6.862-5.273,0-5.143-52.769.985-106.36,1.739-156.833-6.957C1686.493,125.755,1683.709,130.723,1690.13,131.829Zm-311.3-24.777c-41.157,1.328-81.938,4.324-122.166,8.694-44.225,4.8-88.017,10.655-133.3,12.686-44.417,1.992-89.092,1.186-133.6.488q-67.87-1.066-135.767-.795-134.387.7-268.27,7.284-72.1,3.548-143.8,8.787c-48.515,3.542-97.713,6.949-144.042,15.04-6.4,1.117-3.636,6.089,2.83,4.959,39.859-6.96,81.7-10.3,123.414-13.5q66.309-5.077,133.052-8.675,132.267-7.134,265.5-8.513,65.22-.671,130.468.045c44.532.492,89.092,1.763,133.647,1.082,86.239-1.318,167.259-15.764,252.422-20.667a1576.555,1576.555,0,0,1,287.009,9.729c6.636.842,9.466-4.117,2.834-4.959A1590.386,1590.386,0,0,0,1378.825,107.052Zm278.765,129.4c-76.032-6.938-153.539-9.042-230.8-9.083-154.172-.082-308.579,7.8-462.52.538-85.812-4.048-170.957-13.012-249.757-30.24-6.2-1.354-11.616,3.078-5.376,4.441,292.946,64.048,619.327,13.066,925.421,37.575,42.194,3.378,83.654,8.78,126.221,11.061,46.645,2.495,93.673,1.579,140.417.318,6.812-.184,6.858-5.329,0-5.143-41.572,1.121-83.312,1.972-124.888.389C1736.1,244.775,1697.1,240.06,1657.59,236.453ZM1437.865,131.341a997.717,997.717,0,0,0-132.1.469c-46.929,3.244-90.916,11.364-136.988,16.3-53.787,5.767-109.3,5.376-163.883,8.072-6.755.333-6.824,5.48,0,5.143,46.3-2.285,93.012-2.443,139.081-5.791,47.873-3.478,92.947-12.316,140.356-16.785a978.085,978.085,0,0,1,140.621-3.011c49,2.493,94.1,10.154,140.751,17.269,45.681,6.968,95.086,11.619,141.343,3.16,6.348-1.16,3.594-6.134-2.834-4.959-44.594,8.156-91.665,3.564-135.679-3.16C1525.2,141.43,1483.169,134.24,1437.865,131.341Zm147.491,548.582c-104.959-.376-208.677,3.888-312.887,9.422-51.1,2.715-102.517,4.622-153.83,2.143-51.871-2.506-102.555-8.72-153.35-14.129-98.7-10.513-199.054-17.341-299.942-20.326-115.78-3.426-232.059-1.745-347.24,4.858-6.724.387-6.8,5.534,0,5.145,207.9-11.921,419.489-7.62,624.407,13.2,49.782,5.059,99.118,11.308,149.529,14.809,50.711,3.525,101.288,3.16,152.2.847,52.612-2.391,104.955-5.839,157.663-7.78q79.77-2.939,159.844-3.069c101.764-.164,211.4,5.944,304.435-18.395,6.029-1.577.661-6.02-5.376-4.441C1776.61,684.234,1677.746,680.253,1585.355,679.923ZM1690.13,863.181c51.322,8.843,106,8.143,159.663,7.141,6.827-.127,6.862-5.273,0-5.143-52.769.985-106.36,1.739-156.833-6.957C1686.493,857.107,1683.709,862.075,1690.13,863.181Zm-252.265-.488a997.717,997.717,0,0,0-132.1.469c-46.929,3.244-90.916,11.364-136.988,16.3-53.787,5.769-109.3,5.376-163.883,8.072-6.755.333-6.824,5.48,0,5.143,46.3-2.285,93.012-2.443,139.081-5.791,47.873-3.478,92.947-12.314,140.356-16.785a978.091,978.091,0,0,1,140.621-3.011c49,2.493,94.1,10.154,140.751,17.269,45.681,6.968,95.086,11.621,141.343,3.162,6.348-1.162,3.594-6.137-2.834-4.961-44.594,8.156-91.665,3.564-135.679-3.16C1525.2,872.783,1483.169,865.592,1437.865,862.693Zm239.366,41.021a1595.5,1595.5,0,0,1,199-4.791c6.835.259,6.8-4.884,0-5.143a1617.943,1617.943,0,0,0-201.838,4.974C1667.666,899.342,1670.519,904.3,1677.231,903.714Zm-450.8-1.028c-5.057,2.244,2.488,5.873,7.53,3.637,76.347-33.884,186.344-6.571,272.264,2.709-17.576,8.415-47.063,9.279-70.326,10.4-30.6,1.477-61.333,1.84-92.053,1.264-6.854-.13-6.843,5.016,0,5.143,37.528.706,75.153.006,112.4-2.4,24.476-1.583,49.394-4.5,64.4-14.733,1.9-1.3.015-3.475-3.18-3.78C1425.611,896.2,1309.294,865.909,1226.431,902.686Zm495.464-87.353h35.5c6.854,0,6.866-5.145,0-5.145h-35.5C1715.044,810.188,1715.032,815.333,1721.894,815.333Zm-224.2,10.524c79.035-10.394,159.187.957,237.009,8.372,37.479,3.57,75.721,6.363,114.033,5.476,23.942-.555,47.547-2.631,71.267-4.121V830.44c-23.716,1.49-47.317,3.568-71.267,4.121-42.632.985-84.883-2.622-126.455-6.789-74.673-7.484-151.715-16.831-227.42-6.875C1488.253,821.766,1491.057,826.729,1497.692,825.857ZM1378.825,838.4c-41.157,1.328-81.938,4.324-122.166,8.694-44.225,4.8-88.017,10.655-133.3,12.686-44.417,1.992-89.092,1.186-133.6.488q-67.87-1.066-135.767-.795-134.387.7-268.27,7.284-72.1,3.548-143.8,8.787c-48.515,3.542-97.713,6.949-144.042,15.04-6.4,1.117-3.636,6.089,2.83,4.959,39.859-6.96,81.7-10.3,123.414-13.5q66.309-5.077,133.052-8.675,132.267-7.135,265.5-8.513,65.22-.671,130.468.045c44.532.49,89.092,1.763,133.647,1.082,86.239-1.318,167.259-15.764,252.422-20.667a1576.558,1576.558,0,0,1,287.009,9.729c6.636.842,9.466-4.117,2.834-4.959A1590.649,1590.649,0,0,0,1378.825,838.4Zm-210.793,203.621q69.345-3.234,138.689-6.469c6.762-.315,6.828-5.463,0-5.143l-138.689,6.469C1161.27,1037.2,1161.2,1042.345,1168.032,1042.025Zm47.428-213.231c-113.011,11.182-235.68,22.546-348.76,5.815-53.806-7.962-104.2-20.457-158.565-27.65-52-6.884-105.865-9.951-159.621-11.193-127.158-2.938-255.137,4.164-381.65-4.834-6.7-.477-9.6,4.48-2.834,4.961,110.454,7.856,222,3.73,333.131,4.324,57.051.307,114.324,1.9,170.358,7.372,54.8,5.352,105.178,15.835,157.16,25.391A896.941,896.941,0,0,0,985.3,848.066c56.943.186,113.771-3.732,169.743-8.472,115.941-9.817,229.609-24.952,345.431-35.065,128.9-11.256,262.932-15.982,391.016.084,6.639.834,9.469-4.126,2.83-4.959C1667.266,771.174,1437.577,806.81,1215.46,828.794Zm234.816,112.933c-54.724,2.981-110.012,2.534-164.886.821q-94.4-2.948-187.611-11.156c-6.7-.585-9.577,4.37-2.83,4.959,107.789,9.422,220.113,15.578,329.687,11.666,52.3-1.866,102.547-7.338,152.748-14.478,50.611-7.2,101.76-15.142,154.921-16.029,61.409-1.024,121.452,8.936,182.949,5.545,2.515-.14,4.1-.948,4.746-1.883v-1.918c-.641-.857-2.216-1.482-4.746-1.344-54.186,2.989-107.009-4.452-160.9-5.506-50.312-.983-99.46,4.847-147.422,11.565C1555.158,931.221,1504.07,938.8,1450.276,941.728Zm135.08,98.82c-104.959-.376-208.677,3.888-312.887,9.422-51.1,2.715-102.517,4.622-153.83,2.145-51.871-2.506-102.555-8.72-153.35-14.131-98.7-10.513-199.054-17.341-299.942-20.326-115.78-3.424-232.059-1.745-347.24,4.86-6.724.384-6.8,5.534,0,5.143,207.9-11.921,419.489-7.621,624.407,13.2,49.782,5.059,99.118,11.305,149.529,14.809,50.711,3.523,101.288,3.158,152.2.845,52.612-2.391,104.955-5.839,157.663-7.78q79.77-2.939,159.844-3.069c101.764-.164,211.4,5.947,304.435-18.395,6.029-1.577.661-6.02-5.376-4.441C1776.61,1044.859,1677.746,1040.88,1585.355,1040.548Zm-522.079-31.272c-6.49,1.022-3.713,5.99,2.83,4.959,161.99-25.51,335.593-18.729,499.254-.374-39.337,6.385-82.38,4.676-123.383,3.933q-74.684-1.354-149.411-2.039c-48.1-.43-96.127-.184-143.359,4.7-24.273,2.508-48.288,5.8-73.056,6.99-23.316,1.123-46.314-.274-69.058-2.793-47.094-5.212-93.2-14.353-142.4-11.861-6.747.343-6.82,5.491,0,5.145,46.683-2.365,90.543,5.992,135.156,11.174,20.966,2.434,42.5,4.208,64.136,3.871,22.514-.35,44.625-2.758,66.486-5.2,100.055-11.178,204.522-6.75,306.351-4.936,50.07.89,102.075,3.115,148.808-7.391,4.2-.944,2.961-4.206-1.271-4.7C1414.241,990.822,1232.364,982.647,1063.277,1009.275Zm596.6-12.036c-86.1-8.832-169.828-20.362-258.432-21.522-91.738-1.2-183.563,4.318-274.775,8.312-91.181,3.992-182.484,9.033-273.942,11.241-104.064,2.512-207.448-2.823-310.694-8.517-6.8-.374-6.743,4.774,0,5.145,91.849,5.063,184.07,10.128,276.676,9.12,93.1-1.013,186.125-6.51,278.8-10.569,91.461-4,183.379-9.523,275.313-9.737,46.161-.106,92.049,1.592,137.464,5.646,44.294,3.957,87.867,9.53,131.812,14.267,88.8,9.571,184.454,15.6,270.9-1.871,6.229-1.259,3.495-6.238-2.83-4.962C1830.378,1009.919,1742.373,1005.7,1659.878,997.24ZM1649,938.863c-3.744,5.1,4.623,9.078,13.44,11.187,18.152,4.339,41.326,5.845,61.11,7.478a960,960,0,0,0,131.436,1.7c6.731-.369,6.808-5.517,0-5.143a952.832,952.832,0,0,1-105.178.1c-17.806-.991-35.493-2.521-52.923-4.547-8.056-.935-16.408-1.821-24.227-3.162-2.868-.492-10.118-1.639-11.846-3.089-4-3.361,3.575-5.523,8.617-6.543,15.94-3.223,35.628-3.257,52.693-3.393,19.1-.151,38.208.549,57.116,1.821,35.785,2.406,70.867,6.754,105.8,11.1,6.643.825,9.477-4.134,2.834-4.959-43.642-5.426-87.61-10.8-132.661-12.565a642.862,642.862,0,0,0-66.847.68C1675.392,930.377,1654.218,931.757,1649,938.863Zm8.586,28.942c-76.032-6.938-153.539-9.04-230.8-9.083-154.172-.082-308.579,7.8-462.52.538-85.812-4.048-170.957-13.012-249.757-30.24-6.2-1.354-11.616,3.078-5.376,4.441,292.946,64.048,619.327,13.066,925.421,37.575,42.194,3.378,83.654,8.783,126.221,11.061,46.645,2.5,93.673,1.579,140.417.32,6.812-.186,6.858-5.329,0-5.145-41.572,1.121-83.312,1.972-124.888.389C1736.1,976.128,1697.1,971.412,1657.59,967.805ZM1168.032,681.4l138.689-6.469c6.762-.315,6.828-5.463,0-5.143l-138.689,6.467C1161.27,676.57,1161.2,681.718,1168.032,681.4ZM1649,578.238c-3.744,5.1,4.623,9.078,13.44,11.187,18.152,4.339,41.326,5.845,61.11,7.478a960.684,960.684,0,0,0,131.436,1.7c6.731-.369,6.808-5.519,0-5.143a952.847,952.847,0,0,1-105.178.1c-17.806-.994-35.493-2.523-52.923-4.547-8.056-.935-16.408-1.821-24.227-3.162-2.868-.492-10.118-1.639-11.846-3.089-4-3.361,3.575-5.523,8.617-6.543,15.94-3.223,35.628-3.259,52.693-3.393,19.1-.151,38.208.549,57.116,1.821,35.785,2.406,70.867,6.752,105.8,11.1,6.643.825,9.477-4.134,2.834-4.962-43.642-5.426-87.61-10.8-132.661-12.563a642.322,642.322,0,0,0-66.847.68C1675.392,569.752,1654.218,571.132,1649,578.238Zm95.785,193.491c61.286-3.216,117.028,12.07,175.212,18.744v-4.858c-58.08-6.618-114-22.242-175.212-19.03C1738.049,766.94,1737.972,772.088,1744.788,771.729Zm-84.91-135.117c-86.1-8.83-169.828-20.362-258.432-21.52-91.738-1.2-183.563,4.318-274.775,8.31-91.181,3.994-182.484,9.035-273.942,11.243-104.064,2.51-207.448-2.825-310.694-8.517-6.8-.374-6.743,4.771,0,5.143,91.849,5.065,184.07,10.13,276.676,9.122,93.1-1.013,186.125-6.512,278.8-10.569,91.461-4,183.379-9.523,275.313-9.737,46.161-.108,92.049,1.59,137.464,5.646,44.294,3.957,87.867,9.53,131.812,14.267,88.8,9.571,184.454,15.6,270.9-1.873,6.229-1.257,3.495-6.238-2.83-4.959C1830.378,649.292,1742.373,645.073,1659.878,636.612Zm-209.6-55.512c-54.724,2.981-110.012,2.534-164.886.821q-94.4-2.945-187.611-11.154c-6.7-.588-9.577,4.37-2.83,4.959,107.789,9.42,220.113,15.578,329.687,11.666,52.3-1.866,102.547-7.338,152.748-14.478,50.611-7.2,101.76-15.142,154.921-16.029,61.409-1.024,121.452,8.936,182.949,5.543,2.515-.138,4.1-.946,4.746-1.881v-1.918c-.641-.858-2.216-1.484-4.746-1.344-54.186,2.989-107.009-4.452-160.9-5.506-50.312-.983-99.46,4.847-147.422,11.565C1555.158,570.594,1504.07,578.172,1450.276,581.1Zm226.956-38.012a1595.486,1595.486,0,0,1,199-4.791c6.835.259,6.8-4.886,0-5.143a1617.51,1617.51,0,0,0-201.838,4.972C1667.666,538.717,1670.519,543.674,1677.231,543.089ZM1063.277,648.65c-6.49,1.022-3.713,5.99,2.83,4.959,161.99-25.512,335.593-18.729,499.254-.376-39.337,6.387-82.38,4.679-123.383,3.936q-74.684-1.354-149.411-2.039c-48.1-.43-96.127-.184-143.359,4.7-24.273,2.51-48.288,5.8-73.056,6.99-23.316,1.125-46.314-.274-69.058-2.791-47.094-5.212-93.2-14.353-142.4-11.861-6.747.341-6.82,5.489,0,5.143,46.683-2.363,90.543,5.994,135.156,11.176,20.966,2.434,42.5,4.208,64.136,3.871,22.514-.35,44.625-2.76,66.486-5.2,100.055-11.176,204.522-6.748,306.351-4.936,50.07.892,102.075,3.117,148.808-7.392,4.2-.942,2.961-4.2-1.271-4.7C1414.241,630.2,1232.364,622.022,1063.277,648.65Zm163.154-106.592c-5.057,2.246,2.488,5.875,7.53,3.637,76.347-33.884,186.344-6.571,272.264,2.709-17.576,8.417-47.063,9.281-70.326,10.4-30.6,1.475-61.333,1.84-92.053,1.264-6.854-.13-6.843,5.016,0,5.143,37.528.7,75.153.006,112.4-2.4,24.476-1.585,49.394-4.5,64.4-14.736,1.9-1.3.015-3.473-3.18-3.778C1425.611,535.574,1309.294,505.284,1226.431,542.058ZM1657.59,607.18c-76.032-6.938-153.539-9.042-230.8-9.083-154.172-.082-308.579,7.8-462.52.538-85.812-4.048-170.957-13.012-249.757-30.24-6.2-1.354-11.616,3.076-5.376,4.441,292.946,64.048,619.327,13.066,925.421,37.573,42.194,3.378,83.654,8.783,126.221,11.061,46.645,2.5,93.673,1.581,140.417.32,6.812-.184,6.858-5.329,0-5.143-41.572,1.121-83.312,1.972-124.888.389C1736.1,615.5,1697.1,610.787,1657.59,607.18ZM1437.865,502.066a997.706,997.706,0,0,0-132.1.471c-46.929,3.244-90.916,11.364-136.988,16.3-53.787,5.767-109.3,5.376-163.883,8.072-6.755.333-6.824,5.48,0,5.143,46.3-2.285,93.012-2.445,139.081-5.791,47.873-3.478,92.947-12.316,140.356-16.785a977.77,977.77,0,0,1,140.621-3.011c49,2.493,94.1,10.154,140.751,17.269,45.681,6.966,95.086,11.619,141.343,3.16,6.348-1.16,3.594-6.134-2.834-4.959-44.594,8.154-91.665,3.564-135.679-3.16C1525.2,512.158,1483.169,504.967,1437.865,502.066Zm82.172,249.469c-51.725,1.238-103.473-.7-155.017-2.622-6.835-.257-6.8,4.888,0,5.143,51.544,1.924,103.292,3.86,155.017,2.624,52.474-1.255,103.542-7.487,155.816-9.472,82.548-3.138,162.474,12.066,244.147,12.519v-5.083c-36.211-.22-72.254-3.514-107.931-6.722-46.913-4.218-93.481-7.741-141.331-5.651C1620.23,744.481,1570.79,750.324,1520.037,751.535Zm-396.261,7.722c-91.392-7.042-181.221-8.854-272.632-.959-47.3,4.085-94.187,9.474-141.972,12.148-45.865,2.566-92.133,2.4-138.186,1.331-102.371-2.385-205.244-8.992-307.119-.248-6.735.577-3.882,5.536,2.83,4.959,93.251-8,187.884-2.845,281.618-.162,46.011,1.318,92.225,2.05,138.236.324,46.307-1.737,91.784-6.366,137.288-10.651,47.328-4.454,94.687-8.061,143.013-8.268,48.215-.207,96.307,2.2,143.919,5.72,90.305,6.666,179.3,17.23,270.259,21.84,94.748,4.8,192.131,3.013,280.681-15.438,6.275-1.307.856-5.739-5.376-4.441C1485.611,800.982,1297.628,772.651,1123.776,759.257Zm193.018-16.334c-6.486.948-1.69,5.609,4.746,4.67,96.319-14.07,193.832-28.242,295.592-31.3,48.338-1.452,97.375-.294,145.237,4.584,39.1,3.983,84.061,11.513,117.231-2.575,5.057-2.147-1.962-6.126-7.046-3.966-36.23,15.386-93.869,2.2-136.021-.894-45.174-3.313-90.981-3.521-136.116-1.7C1502.9,715.688,1409.391,729.4,1316.794,742.923Zm339.621-45q-148.3,1.821-295.841,9.986c-47.478,2.644-95.005,5.711-142.894,5.6-48.814-.114-97.6-2.9-146.078-5.424-53.96-2.8-107.77-6.53-159.729-14.321-6.563-.983-9.37,3.981-2.834,4.959,44.091,6.612,89.568,10.325,135.322,13.008,48.019,2.817,96.445,5.441,144.772,6.547,49.82,1.143,99.122-1.13,148.55-3.927,49.348-2.793,98.742-5.275,148.285-7.111q85.1-3.153,170.446-4.171C1663.254,702.981,1663.281,697.838,1656.415,697.922Zm47.727,358.312c-6.8.227-6.85,5.372,0,5.143,44.828-1.488,89.238,2.244,134,2.406,28.14.1,55.127-2.1,81.854-5.32v-5.329c-28.355,3.454-56.9,5.758-86.9,5.469C1790.028,1058.188,1747.284,1054.8,1704.142,1056.234Zm0-360.625c-6.8.225-6.85,5.372,0,5.143,44.828-1.488,89.238,2.244,134,2.4,28.14.1,55.127-2.1,81.854-5.318v-5.329c-28.355,3.454-56.9,5.759-86.9,5.469C1790.028,697.563,1747.284,694.174,1704.142,695.609Z" transform="translate(0 0)" fill="#ebf1d7" opacity="0.55"/>
        </g>
      </g>
    </g>
  </g>
</svg>
