<svg xmlns="http://www.w3.org/2000/svg" xmlns:xlink="http://www.w3.org/1999/xlink" width="1449.099" height="1036.169" viewBox="0 0 1449.099 1036.169">
  <defs>
    <linearGradient id="linear-gradient" x1="0.507" y1="0.639" x2="0.57" y2="1.081" gradientUnits="objectBoundingBox">
      <stop offset="0.07" stop-color="#b47325"/>
      <stop offset="1" stop-color="#b47325" stop-opacity="0"/>
    </linearGradient>
    <radialGradient id="radial-gradient" cx="568.294" cy="341.055" r="1719.724" gradientTransform="matrix(0.704, 0.008, -0.006, 0.517, 154.849, 141.783)" gradientUnits="userSpaceOnUse">
      <stop offset="0" stop-color="#ffec9d"/>
      <stop offset="0.429" stop-color="#fed67c"/>
      <stop offset="0.964" stop-color="#ba7823"/>
    </radialGradient>
    <linearGradient id="linear-gradient-2" x1="-21.172" y1="0.536" x2="-20.171" y2="0.536" gradientTransform="matrix(1, 0, 0, 1, 0, 0)" xlink:href="#radial-gradient"/>
    <linearGradient id="linear-gradient-3" x1="-5.564" y1="0.506" x2="-4.564" y2="0.506" gradientTransform="matrix(1, 0, 0, 1, 0, 0)" xlink:href="#radial-gradient"/>
  </defs>
  <g id="Group_1109" data-name="Group 1109" transform="translate(-232.997 -27.018)">
    <g id="Group_524" data-name="Group 524" transform="translate(84.08 107.746)">
      <g id="Group_523" data-name="Group 523" transform="translate(148.917 -80.728)">
        <g id="Component_7_4" data-name="Component 7 – 4">
          <path id="Path_4911" data-name="Path 4911" d="M1468.165,979.9l-93.495-531.686-.13-9.478L1426.893,72.26,1341,25.784l-51.849,36.66,5.862,26.006L1028.962,89.7c-10.581,20.8-22.117,42.645-22.117,42.645s-24.276-13.679-26.33-27.527c-.449-3.187-3.9-8.516-8.884-14.855L612.654,91.634l-9.846,17.611-13-17.507-428.12,2.006,3.747-21.785L111.726,36.821,28.306,85.73l72.314,369.5L34.24,993.882l1.836-1.479-.908,1.469s24.592,22.073,30.245,26.162c1.234.887,4.368,1.355,8.574,1.506l72.242,12.682L219.359,997.4s-.443-4.758-1.247-13.284l105.284.564,6.577-34.092,15.208,34.221,263.722,1.4c13.17-18.8,24.779-35.29,24.779-35.29l41.025,19.081,37.088,3.868s2.159,5.61,4.9,12.943l422.258,2.257,3.956-40.863s21,22.8,36.078,41.094l106.841.574,72.527,33.55,71.5-14.745c4.247-.264,7.4-.823,8.584-1.752,5.441-4.246,28.83-27.015,28.83-27.015l-1-1.442Z" transform="translate(-19.067 1.945)" opacity="0.4" fill="url(#linear-gradient)"/>
          <g id="Group_520" data-name="Group 520">
            <path id="Path_4912" data-name="Path 4912" d="M1345.351,53.161l-13.585,896.747L1126.224,945.6c-14.745-18.42-35.353-41.413-35.353-41.413l-5.183,40.542L658.2,935.763c-2.564-7.325-4.587-12.939-4.587-12.939l-37.45-4.426-40.982-19.614s-12.232,16.19-26.109,34.664l-266.991-5.589-14.412-34.242-7.645,33.766-159.181-3.335s-44.9-434.5-49.214-453.2C47.352,452.157,103.05,39.344,103.05,39.344l452.415,5.027,12.662,17.6,10.482-17.341L942.14,48.687c4.863,6.379,8.2,11.725,8.565,14.9,1.686,13.8,25.868,27.77,25.868,27.77s12.309-21.519,23.621-42.023Z" transform="translate(23.568 26.983)" fill="url(#radial-gradient)"/>
            <g id="Group_519" data-name="Group 519">
              <g id="Group_517" data-name="Group 517">
                <path id="Path_4913" data-name="Path 4913" d="M123.628,507.655,51.33,489.8l-25.677-32.4,10.492-33.246s80.129-54.113,86.775-50.888,39.807,46.533,39.807,46.533,11.508,43.245,4.83,48.016S123.628,507.655,123.628,507.655Z" transform="translate(-23.965 496.956)" fill="#ffec9d"/>
                <path id="Path_4914" data-name="Path 4914" d="M25.06,978.237,98.5,437.063,42.921,63.932l76.255-47.89,47.392,36.237L137.4,214.612s27.433,276.8,27.365,294.841,26.648,475.309,26.648,475.309l-66.691,35.892,28.757-60.064L101.38,912.3l-62.2,53.738,6.225,22.252,21.613,9.844L107.03,987.08s.051-12.567-3.262-16.768S92.135,963.3,92.135,963.3l-3.384,13.953,4.964,8.4L75.424,978.6l.063-15.357,22.592-15.295s15.78,22.391,19.091,27.991-8.3,20.917-13.315,25.091-46.453,8.234-51.428,4.03-26.534-26.826-26.534-26.826l.857-1.458Z" transform="translate(-25.06 -16.042)" fill="url(#linear-gradient-2)"/>
              </g>
              <g id="Group_518" data-name="Group 518" transform="translate(1268.208 9.974)">
                <path id="Path_4915" data-name="Path 4915" d="M472.789,511.141l72.367-17.557,25.788-32.3L560.577,428S480.659,373.561,474,376.752s-39.975,46.373-39.975,46.373-11.67,43.188-5.007,47.99S472.789,511.141,472.789,511.141Z" transform="translate(-406.252 493.436)" fill="#ffec9d"/>
                <path id="Path_4916" data-name="Path 4916" d="M586.066,982.07,514.955,440.64,572.148,67.714,496.1,19.546,448.549,55.614,477.01,218.045s-28.62,276.693-28.629,294.743-28.7,475.2-28.7,475.2l66.537,36.13-28.5-60.168,52.308-48.1,61.957,53.959-6.308,22.234-21.661,9.762-39.96-11.2s.006-12.564,3.336-16.756,11.659-6.974,11.659-6.974l3.325,13.963-4.523,8.383,18.8-6.972.011-15.364L513.66,951.522s-16.119,22.336-19.458,27.919,8.1,20.95,13.088,25.143,46.362,8.4,51.36,4.216,26.611-26.731,26.611-26.731l-.868-1.463Z" transform="translate(-419.684 -19.546)" fill="url(#linear-gradient-3)"/>
              </g>
            </g>
          </g>
        </g>
        <g id="Component_5_4" data-name="Component 5 – 4" transform="translate(310.383 263.956)">
          <g id="Component_8_1" data-name="Component 8 – 1">
            <path id="Path_4917" data-name="Path 4917" d="M900.348,271.943c-15.461-37.127-68.148-69.209-109.622-89.072-38.364-18.367-39.3-41-49.986-71.739-11.536-33.2-53.625-39.944-94.173-44.875a328.808,328.808,0,0,0-131.8,10.6C475.7,88.011,401.13,62.888,371.27,84.7c-4.256,3.108-29.654,1.235-36,1.56-12.715.648-25.427,1.39-38.068,2.621-24.028,2.336-47.6,6.386-69.829,13.845-37.558,12.61-79.081,31.882-91.3,63.926-10.759,28.23,19.465,56.922,17.172,86.734-2.847,37.059-36.4,65.056-51.7,99.021-16.8,37.313-16.334,70.091,19.426,99.922,13.972,11.658,33.287,19.342,42.167,34.35,9.875,16.711,5.261,35.23-2.436,51.7-17.378,37.205-66.264,76.211-52.067,118.567,17.248,51.46,100.093,47.2,151.711,37.6,77.8-14.457,155.06-34.548,236.278-24.489,73.482,9.1,140.77,35.517,213.27,46.084,54.613,7.952,110.9-16.113,128.22-56.625,16.625-38.889,8.211-81.458-13.036-118.218-27.26-47.159,7.731-84.649,36.676-126.331C889.537,374.989,919.541,318.049,900.348,271.943Z" transform="translate(-90.832 -63.799)" fill="#ffec9d"/>
          </g>
        </g>
      </g>
    </g>
    <g id="Component_10_4" data-name="Component 10 – 4" transform="translate(1288.859 331.943)">
      <path id="Path_4947" data-name="Path 4947" d="M95.182,25.943c43.616,0,67.032,73.341,67.032,110.344s-76.737-8.276-120.353-8.276-69.989-11.962-69.989-48.965S51.566,25.943,95.182,25.943Z" transform="translate(28.129 -25.943)" fill="#ffec9d"/>
    </g>
    <g id="Component_11_4" data-name="Component 11 – 4" transform="translate(1298.859 663.943)">
      <path id="Path_5088" data-name="Path 5088" d="M95.182,25.943c43.616,0,32.834,47.172,32.834,92.027s-42.54,31.7-86.155,31.7-69.989-14.5-69.989-59.357S51.566,25.943,95.182,25.943Z" transform="translate(28.129 -25.943)" fill="#ffec9d"/>
    </g>
    <g id="Component_9_4" data-name="Component 9 – 4" transform="translate(405.239 406.543)">
      <path id="Path_4962" data-name="Path 4962" d="M68.985,0c38.492,0,65,40.981,65,77.05s-48.9,61.509-87.391,61.509-74.719-25.44-74.719-61.509S30.494,0,68.985,0Z" transform="translate(28.129)" fill="#ffec9d"/>
    </g>
  </g>
</svg>
