<svg xmlns="http://www.w3.org/2000/svg" width="107.228" height="119.319" viewBox="0 0 107.228 119.319">
  <g id="Group_1109" data-name="Group 1109" transform="translate(-427.705 -397.95)">
    <g id="cup" transform="translate(427.705 397.95)">
      <path id="Path_4953" data-name="Path 4953" d="M107.358,11.25H97.715V8.036A8.059,8.059,0,0,0,89.68,0H38.253a8.059,8.059,0,0,0-8.036,8.036V11.25H20.575a4.835,4.835,0,0,0-4.821,4.821v9.643c0,3.134,1.928,6.75,4.821,9.643l10.687,8.276A33.9,33.9,0,0,0,59.146,68.784v8.357H55.931a4.835,4.835,0,0,0-4.821,4.821v1.607H49.5a4.835,4.835,0,0,0-4.821,4.821V90h38.57V88.39a4.835,4.835,0,0,0-4.821-4.821H76.823V81.962A4.835,4.835,0,0,0,72,77.141H68.788V68.784A33.9,33.9,0,0,0,96.671,43.633l10.687-8.276c2.893-2.893,4.821-6.509,4.821-9.643V16.071A4.836,4.836,0,0,0,107.358,11.25ZM23.789,31.74c-2.25-2.33-3.214-4.661-3.214-6.026V16.071h9.643V36.722Zm83.568-6.026c0,1.366-.964,3.7-3.214,6.026l-6.509,4.982V16.071h9.643v9.643Z" transform="translate(-10.353)" fill="#fac116"/>
      <path id="Path_4954" data-name="Path 4954" d="M94.305,441.108h91.909c4.213,0,7.659,4.948,7.659,11v7.331c0,6.048-3.447,11-7.659,11H94.305c-4.213,0-7.659-4.948-7.659-11V452.1C86.646,446.056,90.093,441.108,94.305,441.108Z" transform="translate(-86.646 -351.111)" fill="#feda82"/>
      <path id="Path_4955" data-name="Path 4955" d="M213.467,102.812l-5.544,5.786s-5.625-6.428-5.705-6.428-5.625,6.428-5.625,6.428l-5.544-5.705c-.8-1.045-1.607-.964-1.607-.08l1.607,13.741a1.612,1.612,0,0,0,1.607,1.607H211.94a1.612,1.612,0,0,0,1.607-1.607l1.607-13.66C215.074,101.526,214.029,102.25,213.467,102.812Zm-1.607,18.642H192.575a1.607,1.607,0,0,0,0,3.214H211.86a1.607,1.607,0,0,0,0-3.214Z" transform="translate(-148.603 -81.277)" fill="#ffec9d"/>
      <path id="Path_4956" data-name="Path 4956" d="M164.208,393.846a5.178,5.178,0,0,0-.241,1.607v1.607H189.68v-1.607a5.179,5.179,0,0,0-.241-1.607Zm-6.428,6.428a5.179,5.179,0,0,0-.241,1.607v1.607h38.57v-1.607a5.179,5.179,0,0,0-.241-1.607Z" transform="translate(-123.209 -313.492)" fill="#d9a60e"/>
      <path id="Path_4958" data-name="Path 4958" d="M94.681,35.115V8.036A8.059,8.059,0,0,1,102.716,0H94.681a8.059,8.059,0,0,0-8.036,8.036V35.115A33.848,33.848,0,0,0,120.394,69.1a32.693,32.693,0,0,0,4.018-.241A33.848,33.848,0,0,1,94.681,35.115Z" transform="translate(-66.78)" fill="#d9a60e"/>
    </g>
    <g id="Group_540" data-name="Group 540" transform="translate(455.477 490.393)">
      <text id="اعلام_نتایج" data-name="اعلام نتایج" transform="translate(-6.477 15.607)" fill="#714508" font-size="16" font-family="IRANYekan-Bold, IRANYekan" font-weight="700" letter-spacing="-0.05em"><tspan x="0" y="0">اعلام نتایج</tspan></text>
    </g>
  </g>
</svg>
